  0
SECTION
  2
HEADER
  9
$ACADVER
  1
AC1009
  9
$INSBASE
 10
0.0
 20
0.0
 30
0.0
  9
$EXTMIN
 10
0.0
 20
0.0
 30
0.0
  9
$EXTMAX
 10
0.0
 20
0.0
 30
0.0
  0
ENDSEC
  0
SECTION
  2
TABLES
  0
TABLE
  2
VPORT
 70
0
  0
ENDTAB
  0
TABLE
  2
LTYPE
 70
1
  0
LTYPE
  2
CONTINUOUS
 70
0
  3
Solid line
 72
65
 73
0
 40
0.0
  0
ENDTAB
  0
TABLE
  2
LAYER
 70
1
  0
LAYER
  2
PYDXF
 70
64
 62
7
  6
continuous
  0
ENDTAB
  0
TABLE
  2
STYLE
 70
1
  0
STYLE
  2
STANDARD
 70
0
 40
0
 41
1.0
 50
0.0
 71
0
 42
1
 3
ARIAL.TTF
 4

  0
ENDTAB
  0
TABLE
  2
VIEW
 70
0
  0
ENDTAB
  0
ENDSEC
  0
SECTION
  2
BLOCKS
  0
ENDSEC
  0
SECTION
  2
ENTITIES
  0
POLYLINE
  8
0
 62
0
 70
1
 66
1
 10
0.0
 20
0.0
 30
0.0
  0
VERTEX
  8
0
 10
15.0
 20
75.0
  0
VERTEX
  8
0
 10
15.0
 20
75.0
  0
VERTEX
  8
0
 10
90.0
 20
75.0
  0
VERTEX
  8
0
 10
90.0
 20
75.0
  0
SEQEND
  8
0
  0
POLYLINE
  8
0
 62
0
 70
1
 66
1
 10
0.0
 20
0.0
 30
0.0
  0
VERTEX
  8
0
 10
15.0
 20
75.0
  0
VERTEX
  8
0
 10
15.0
 20
75.0
 42
0.414213562373
  0
VERTEX
  8
0
 10
10.0
 20
70.0
  0
VERTEX
  8
0
 10
10.0
 20
70.0
 42
-0.414213562373
  0
SEQEND
  8
0
  0
POLYLINE
  8
0
 62
0
 70
1
 66
1
 10
0.0
 20
0.0
 30
0.0
  0
VERTEX
  8
0
 10
10.0
 20
15.0
  0
VERTEX
  8
0
 10
10.0
 20
15.0
  0
VERTEX
  8
0
 10
10.0
 20
70.0
  0
VERTEX
  8
0
 10
10.0
 20
70.0
  0
SEQEND
  8
0
  0
POLYLINE
  8
0
 62
0
 70
1
 66
1
 10
0.0
 20
0.0
 30
0.0
  0
VERTEX
  8
0
 10
10.0
 20
15.0
  0
VERTEX
  8
0
 10
10.0
 20
15.0
 42
0.414213562373
  0
VERTEX
  8
0
 10
15.0
 20
10.0
  0
VERTEX
  8
0
 10
15.0
 20
10.0
 42
-0.414213562373
  0
SEQEND
  8
0
  0
POLYLINE
  8
0
 62
0
 70
1
 66
1
 10
0.0
 20
0.0
 30
0.0
  0
VERTEX
  8
0
 10
90.0
 20
10.0
  0
VERTEX
  8
0
 10
90.0
 20
10.0
  0
VERTEX
  8
0
 10
15.0
 20
10.0
  0
VERTEX
  8
0
 10
15.0
 20
10.0
  0
SEQEND
  8
0
  0
POLYLINE
  8
0
 62
0
 70
1
 66
1
 10
0.0
 20
0.0
 30
0.0
  0
VERTEX
  8
0
 10
90.0
 20
10.0
  0
VERTEX
  8
0
 10
90.0
 20
10.0
 42
0.414213562373
  0
VERTEX
  8
0
 10
95.0
 20
15.0
  0
VERTEX
  8
0
 10
95.0
 20
15.0
 42
-0.414213562373
  0
SEQEND
  8
0
  0
POLYLINE
  8
0
 62
0
 70
1
 66
1
 10
0.0
 20
0.0
 30
0.0
  0
VERTEX
  8
0
 10
95.0
 20
70.0
  0
VERTEX
  8
0
 10
95.0
 20
70.0
  0
VERTEX
  8
0
 10
95.0
 20
15.0
  0
VERTEX
  8
0
 10
95.0
 20
15.0
  0
SEQEND
  8
0
  0
POLYLINE
  8
0
 62
0
 70
1
 66
1
 10
0.0
 20
0.0
 30
0.0
  0
VERTEX
  8
0
 10
95.0
 20
70.0
  0
VERTEX
  8
0
 10
95.0
 20
70.0
 42
0.414213562373
  0
VERTEX
  8
0
 10
90.0
 20
75.0
  0
VERTEX
  8
0
 10
90.0
 20
75.0
 42
-0.414213562373
  0
SEQEND
  8
0
  0
POLYLINE
  8
0
 62
0
 70
1
 66
1
 10
0.0
 20
0.0
 30
0.0
  0
VERTEX
  8
0
 10
36.9999996551
 20
68.35
  0
VERTEX
  8
0
 10
36.9999996551
 20
68.35
 42
0.99999992115
  0
VERTEX
  8
0
 10
37.000000068
 20
64.85
  0
VERTEX
  8
0
 10
37.000000068
 20
64.85
 42
-0.99999992115
  0
SEQEND
  8
0
  0
POLYLINE
  8
0
 62
0
 70
1
 66
1
 10
0.0
 20
0.0
 30
0.0
  0
VERTEX
  8
0
 10
36.9999996551
 20
68.35
  0
VERTEX
  8
0
 10
36.9999996551
 20
68.35
  0
VERTEX
  8
0
 10
84.4999996551
 20
68.35
  0
VERTEX
  8
0
 10
84.4999996551
 20
68.35
  0
SEQEND
  8
0
  0
POLYLINE
  8
0
 62
0
 70
1
 66
1
 10
0.0
 20
0.0
 30
0.0
  0
VERTEX
  8
0
 10
84.4999999601
 20
64.85
  0
VERTEX
  8
0
 10
84.4999999601
 20
64.85
 42
0.999999888989
  0
VERTEX
  8
0
 10
84.4999996551
 20
68.35
  0
VERTEX
  8
0
 10
84.4999996551
 20
68.35
 42
-0.999999888989
  0
SEQEND
  8
0
  0
POLYLINE
  8
0
 62
0
 70
1
 66
1
 10
0.0
 20
0.0
 30
0.0
  0
VERTEX
  8
0
 10
37.000000068
 20
64.85
  0
VERTEX
  8
0
 10
37.000000068
 20
64.85
  0
VERTEX
  8
0
 10
84.4999999601
 20
64.85
  0
VERTEX
  8
0
 10
84.4999999601
 20
64.85
  0
SEQEND
  8
0
  0
POLYLINE
  8
0
 62
0
 70
1
 66
1
 10
0.0
 20
0.0
 30
0.0
  0
VERTEX
  8
0
 10
45.0000001455
 20
20.190004
  0
VERTEX
  8
0
 10
45.0000001455
 20
20.190004
  0
VERTEX
  8
0
 10
84.0000001455
 20
20.190004
  0
VERTEX
  8
0
 10
84.0000001455
 20
20.190004
  0
SEQEND
  8
0
  0
POLYLINE
  8
0
 62
0
 70
1
 66
1
 10
0.0
 20
0.0
 30
0.0
  0
VERTEX
  8
0
 10
84.0000003468
 20
16.690004
  0
VERTEX
  8
0
 10
84.0000003468
 20
16.690004
 42
-0.999999961286
  0
VERTEX
  8
0
 10
84.0000001455
 20
20.190004
  0
VERTEX
  8
0
 10
84.0000001455
 20
20.190004
 42
0.999999961286
  0
SEQEND
  8
0
  0
POLYLINE
  8
0
 62
0
 70
1
 66
1
 10
0.0
 20
0.0
 30
0.0
  0
VERTEX
  8
0
 10
45.0
 20
16.690004
  0
VERTEX
  8
0
 10
45.0
 20
16.690004
  0
VERTEX
  8
0
 10
84.0000003468
 20
16.690004
  0
VERTEX
  8
0
 10
84.0000003468
 20
16.690004
  0
SEQEND
  8
0
  0
POLYLINE
  8
0
 62
0
 70
1
 66
1
 10
0.0
 20
0.0
 30
0.0
  0
VERTEX
  8
0
 10
45.0000001455
 20
20.190004
  0
VERTEX
  8
0
 10
45.0000001455
 20
20.190004
 42
-0.999999952878
  0
VERTEX
  8
0
 10
45.0
 20
16.690004
  0
VERTEX
  8
0
 10
45.0
 20
16.690004
 42
0.999999952878
  0
SEQEND
  8
0
  0
POLYLINE
  8
0
 62
0
 70
1
 66
1
 10
0.0
 20
0.0
 30
0.0
  0
VERTEX
  8
0
 10
81.5
 20
50.9
  0
VERTEX
  8
0
 10
81.5
 20
50.9
  0
VERTEX
  8
0
 10
89.5
 20
50.9
  0
VERTEX
  8
0
 10
89.5
 20
50.9
  0
SEQEND
  8
0
  0
POLYLINE
  8
0
 62
0
 70
1
 66
1
 10
0.0
 20
0.0
 30
0.0
  0
VERTEX
  8
0
 10
89.5
 20
50.9
  0
VERTEX
  8
0
 10
89.5
 20
50.9
  0
VERTEX
  8
0
 10
89.5
 20
35.9
  0
VERTEX
  8
0
 10
89.5
 20
35.9
  0
SEQEND
  8
0
  0
POLYLINE
  8
0
 62
0
 70
1
 66
1
 10
0.0
 20
0.0
 30
0.0
  0
VERTEX
  8
0
 10
89.5
 20
35.9
  0
VERTEX
  8
0
 10
89.5
 20
35.9
  0
VERTEX
  8
0
 10
81.5
 20
35.9
  0
VERTEX
  8
0
 10
81.5
 20
35.9
  0
SEQEND
  8
0
  0
POLYLINE
  8
0
 62
0
 70
1
 66
1
 10
0.0
 20
0.0
 30
0.0
  0
VERTEX
  8
0
 10
81.5
 20
35.9
  0
VERTEX
  8
0
 10
81.5
 20
35.9
  0
VERTEX
  8
0
 10
81.5
 20
50.9
  0
VERTEX
  8
0
 10
81.5
 20
50.9
  0
SEQEND
  8
0
  0
POLYLINE
  8
0
 62
0
 70
0
 66
1
 10
0.0
 20
0.0
 30
0.0
  0
VERTEX
  8
0
 10
91.6
 20
70.0
  0
VERTEX
  8
0
 10
91.6
 20
70.0
  0
VERTEX
  8
0
 10
91.6
 20
70.0
  0
SEQEND
  8
0
  0
POLYLINE
  8
0
 62
0
 70
0
 66
1
 10
0.0
 20
0.0
 30
0.0
  0
VERTEX
  8
0
 10
91.6
 20
15.0
  0
VERTEX
  8
0
 10
91.6
 20
15.0
  0
VERTEX
  8
0
 10
91.6
 20
15.0
  0
SEQEND
  8
0
  0
POLYLINE
  8
0
 62
0
 70
0
 66
1
 10
0.0
 20
0.0
 30
0.0
  0
VERTEX
  8
0
 10
16.6
 20
70.0
  0
VERTEX
  8
0
 10
16.6
 20
70.0
  0
VERTEX
  8
0
 10
16.6
 20
70.0
  0
SEQEND
  8
0
  0
POLYLINE
  8
0
 62
0
 70
0
 66
1
 10
0.0
 20
0.0
 30
0.0
  0
VERTEX
  8
0
 10
16.6
 20
15.0
  0
VERTEX
  8
0
 10
16.6
 20
15.0
  0
VERTEX
  8
0
 10
16.6
 20
15.0
  0
SEQEND
  8
0
  0
POLYLINE
  8
0
 62
0
 70
1
 66
1
 10
0.0
 20
0.0
 30
0.0
  0
VERTEX
  8
0
 10
15.0
 20
75.0
  0
VERTEX
  8
0
 10
90.0
 20
75.0
 42
-0.414213562373
  0
VERTEX
  8
0
 10
95.0
 20
70.0
  0
VERTEX
  8
0
 10
95.0
 20
15.0
 42
-0.414213562373
  0
VERTEX
  8
0
 10
90.0
 20
10.0
  0
VERTEX
  8
0
 10
15.0
 20
10.0
 42
-0.414213562373
  0
VERTEX
  8
0
 10
10.0
 20
15.0
  0
VERTEX
  8
0
 10
10.0
 20
70.0
 42
-0.414213562373
  0
SEQEND
  8
0
  0
POLYLINE
  8
0
 62
0
 70
1
 66
1
 10
0.0
 20
0.0
 30
0.0
  0
VERTEX
  8
0
 10
36.9999996551
 20
68.35
 42
0.99999992115
  0
VERTEX
  8
0
 10
37.000000068
 20
64.85
  0
VERTEX
  8
0
 10
84.4999999601
 20
64.85
 42
0.999999888989
  0
VERTEX
  8
0
 10
84.4999996551
 20
68.35
  0
SEQEND
  8
0
  0
POLYLINE
  8
0
 62
0
 70
1
 66
1
 10
0.0
 20
0.0
 30
0.0
  0
VERTEX
  8
0
 10
45.0000001455
 20
20.190004
  0
VERTEX
  8
0
 10
84.0000001455
 20
20.190004
 42
0.999999961286
  0
VERTEX
  8
0
 10
84.0000003468
 20
16.690004
  0
VERTEX
  8
0
 10
45.0
 20
16.690004
 42
0.999999952878
  0
SEQEND
  8
0
  0
POLYLINE
  8
0
 62
0
 70
1
 66
1
 10
0.0
 20
0.0
 30
0.0
  0
VERTEX
  8
0
 10
81.5
 20
50.9
  0
VERTEX
  8
0
 10
89.5
 20
50.9
  0
VERTEX
  8
0
 10
89.5
 20
35.9
  0
VERTEX
  8
0
 10
81.5
 20
35.9
  0
SEQEND
  8
0
  0
CIRCLE
  8
0
 62
0
 10
90.0
 20
70.0
 30
20.0
 40
1.6
  0
CIRCLE
  8
0
 62
0
 10
90.0
 20
15.0
 30
20.0
 40
1.6
  0
CIRCLE
  8
0
 62
0
 10
15.0
 20
70.0
 30
20.0
 40
1.6
  0
CIRCLE
  8
0
 62
0
 10
15.0
 20
15.0
 30
20.0
 40
1.6
  0
POLYLINE
  8
0
 62
0
 70
1
 66
1
 10
0.0
 20
0.0
 30
0.0
  0
VERTEX
  8
0
 10
15.0
 20
75.0
  0
VERTEX
  8
0
 10
90.0
 20
75.0
 42
-0.414213562373
  0
VERTEX
  8
0
 10
95.0
 20
70.0
  0
VERTEX
  8
0
 10
95.0
 20
15.0
 42
-0.414213562373
  0
VERTEX
  8
0
 10
90.0
 20
10.0
  0
VERTEX
  8
0
 10
15.0
 20
10.0
 42
-0.414213562373
  0
VERTEX
  8
0
 10
10.0
 20
15.0
  0
VERTEX
  8
0
 10
10.0
 20
70.0
 42
-0.414213562373
  0
SEQEND
  8
0
  0
POLYLINE
  8
0
 62
0
 70
1
 66
1
 10
0.0
 20
0.0
 30
0.0
  0
VERTEX
  8
0
 10
36.9999996551
 20
68.35
 42
0.99999992115
  0
VERTEX
  8
0
 10
37.000000068
 20
64.85
  0
VERTEX
  8
0
 10
84.4999999601
 20
64.85
 42
0.999999888989
  0
VERTEX
  8
0
 10
84.4999996551
 20
68.35
  0
SEQEND
  8
0
  0
POLYLINE
  8
0
 62
0
 70
1
 66
1
 10
0.0
 20
0.0
 30
0.0
  0
VERTEX
  8
0
 10
45.0000001455
 20
20.190004
  0
VERTEX
  8
0
 10
84.0000001455
 20
20.190004
 42
0.999999961286
  0
VERTEX
  8
0
 10
84.0000003468
 20
16.690004
  0
VERTEX
  8
0
 10
45.0
 20
16.690004
 42
0.999999952878
  0
SEQEND
  8
0
  0
POLYLINE
  8
0
 62
0
 70
1
 66
1
 10
0.0
 20
0.0
 30
0.0
  0
VERTEX
  8
0
 10
81.5
 20
50.9
  0
VERTEX
  8
0
 10
89.5
 20
50.9
  0
VERTEX
  8
0
 10
89.5
 20
35.9
  0
VERTEX
  8
0
 10
81.5
 20
35.9
  0
SEQEND
  8
0
  0
CIRCLE
  8
0
 62
0
 10
90.0
 20
70.0
 30
23.0
 40
1.6
  0
CIRCLE
  8
0
 62
0
 10
90.0
 20
15.0
 30
23.0
 40
1.6
  0
CIRCLE
  8
0
 62
0
 10
15.0
 20
70.0
 30
23.0
 40
1.6
  0
CIRCLE
  8
0
 62
0
 10
15.0
 20
15.0
 30
23.0
 40
1.6
  0
ENDSEC
  0
EOF
